# xmcd
#
# Track frame offsets:
#	150
#	11112
#	26396
#	39543
#	56012
#	67932
#	81872
#	117506
#	136349
#	167412
#	186652
#
# Disc length: 2814 seconds
#
# Revision: 1
# Processed by: cddbd v1.5.2PL0 Copyright (c) Steve Scherf et al.
# Submitted via: audiograbber 1.83.01
#
DISCID=920afc0b
DTITLE=MIKE BLOOMFIELD - DON'T SAY THAT I AINT YOUR MAN CD1
DYEAR=1900
DGENRE=
TTITLE0=I've Got You In The Palm Of My Hands
TTITLE1=Last Night
TTITLE2=Feel So Good
TTITLE3=Goin' Down Slow
TTITLE4=I Got My Mojo Working
TTITLE5=Born In Chicago
TTITLE6=Work Song
TTITLE7=Killing Floor
TTITLE8=Albert's Shuffle
TTITLE9=Stop
TTITLE10=Mary Ann
EXTD=
EXTT0=
EXTT1=
EXTT2=
EXTT3=
EXTT4=
EXTT5=
EXTT6=
EXTT7=
EXTT8=
EXTT9=
EXTT10=
PLAYORDER=
